PathFileType	4	(X/Y/Z)	/Users/niels/Desktop/University/Third Semester/Perception and Action/Exam/Gymnastics Motion Tracking/Code for Gym Tracking/Analyzed Data/Webcam_Backflip/id1_5_trajectory_Sports2D/id1_5_trajectory_Sports2D_px_person00.trc
DataRate	CameraRate	NumFrames	NumMarkers	Units	OrigDataRate	OrigDataStartFrame	OrigNumFrames
29.87551867219917	29.87551867219917	7	22	m	29.87551867219917	60	241
Frame#	Time	Hip			RHip			RKnee			RAnkle			RBigToe			RSmallToe			RHeel			LHip			LKnee			LAnkle			LBigToe			LSmallToe			LHeel			Neck			Head			Nose			RShoulder			RElbow			RWrist			LShoulder			LElbow			LWrist		
		X1	Y1	Z1	X2	Y2	Z2	X3	Y3	Z3	X4	Y4	Z4	X5	Y5	Z5	X6	Y6	Z6	X7	Y7	Z7	X8	Y8	Z8	X9	Y9	Z9	X10	Y10	Z10	X11	Y11	Z11	X12	Y12	Z12	X13	Y13	Z13	X14	Y14	Z14	X15	Y15	Z15	X16	Y16	Z16	X17	Y17	Z17	X18	Y18	Z18	X19	Y19	Z19	X20	Y20	Z20	X21	Y21	Z21	X22	Y22	Z22
60	2.0083333333333333	0.8924450039337308	-0.6381801101126244	0.0	0.8940291660930968	-0.6382323230164215	0.0	0.9786589569814934	-0.7131122146203497	0.0	0.9226738719019552	-0.8083574389417271	0.0	0.9605656497015188	-0.8277998630542811	0.0	0.9514973552512391	-0.8322225269849969	0.0	0.9089485063268234	-0.8188814102411266	0.0	0.8914761492341678	-0.6347441675768131	0.0	0.9722334279755812	-0.7061524575035493	0.0	0.9260111424255391	-0.8048844468741294	0.0	0.9622300574995825	-0.8267663487716094	0.0	0.9570861436064204	-0.8141588315932662	0.0	0.9077386347692921	-0.8146785763307945	0.0	0.9737368078082427	-0.5104077219416959	0.0	1.017924499730685	-0.45386909245886087	0.0	1.0200856345755231	-0.48395511043776496	0.0	0.9602725006704977	-0.5223824801822204	0.0	0.9024241312905674	-0.5486561847259291	0.0	0.857356540460449	-0.5802914534610594	0.0	0.9611370472635355	-0.521335208028278	0.0	0.9065022397327674	-0.5496482992499945	0.0	0.8668769163607777	-0.5752206670157801	0.0
61	2.0418055555555554	0.8944603161327167	-0.6548686630700412	0.0	0.8965773249094543	-0.6548990047661746	0.0	0.9775547904677632	-0.7328194552488577	0.0	0.9226856455014361	-0.8269741213692462	0.0	0.9602755096812146	-0.8439451822597199	0.0	0.9518890919064416	-0.8495632216765991	0.0	0.909299426993183	-0.836289741537498	0.0	0.8937098610209699	-0.65138401845166	0.0	0.969561715369458	-0.7258403518322737	0.0	0.9252908558329863	-0.8236405978290929	0.0	0.9626668551894517	-0.8439185682279465	0.0	0.9561475875283182	-0.8260131972254917	0.0	0.9080728429297946	-0.8314268046242055	0.0	0.9680293508522886	-0.521834995242028	0.0	1.0063011245875202	-0.4618154555501985	0.0	1.0119134572638995	-0.4914966821506426	0.0	0.955816789462247	-0.5373722065315825	0.0	0.9124184817207682	-0.5786950479070185	0.0	0.8868078868831262	-0.6182469033645487	0.0	0.9566052519058422	-0.5342247186776652	0.0	0.917267335841397	-0.5759562942898828	0.0	0.897790405665018	-0.6084097330845375	0.0
62	2.075277777777778	0.89695885335889	-0.6691130353249214	0.0	0.898909450070292	-0.6692496825587342	0.0	0.9744856154797136	-0.7517470863251714	0.0	0.9225847006891469	-0.8449384649213718	0.0	0.9594826099999831	-0.8605099501582296	0.0	0.9519040681905744	-0.8673966571184801	0.0	0.9094093646898597	-0.8531071996445562	0.0	0.8974795858522356	-0.6657354745647199	0.0	0.9672541417249515	-0.7449919656932582	0.0	0.924387065843288	-0.8416439491687444	0.0	0.9636334878701319	-0.8612658142300448	0.0	0.9553121216825711	-0.8384239041683852	0.0	0.9079531898924731	-0.8473973120654187	0.0	0.9607728295948194	-0.5309558923635361	0.0	0.991430623149652	-0.46723728181375207	0.0	1.00139634574474	-0.49689389076019935	0.0	0.9499455504788007	-0.5491191092697068	0.0	0.9266702392348234	-0.6002073836929324	0.0	0.9240493723156127	-0.6404094233796424	0.0	0.9517744968463634	-0.5447809670401755	0.0	0.9333185713529754	-0.5940461617128954	0.0	0.9369603215679931	-0.6258709648306335	0.0
63	2.10875	0.8998715977551479	-0.6790776259192997	0.0	0.9011014766250419	-0.6794039350770605	0.0	0.9697316633078024	-0.7672404822578172	0.0	0.9222859151189503	-0.8599408039927201	0.0	0.9582961618925704	-0.8753616814797016	0.0	0.9515361714500056	-0.8832629010881251	0.0	0.9092709364769163	-0.8674668791734201	0.0	0.9018480040403726	-0.6759490140950521	0.0	0.96464089439396	-0.761103005308817	0.0	0.9232753925334397	-0.8566885534574162	0.0	0.96455737747889	-0.8764704067166561	0.0	0.9543626760693695	-0.8505612069333034	0.0	0.9072899050231351	-0.8609332448560632	0.0	0.952255738055881	-0.5364665274695745	0.0	0.9736594964731412	-0.46908657668319653	0.0	0.9886816992656153	-0.49891527365316335	0.0	0.9431191031719166	-0.5556667624625857	0.0	0.9427287513535783	-0.6074020395066541	0.0	0.9618293798936214	-0.6392394632117853	0.0	0.946599110723588	-0.5509863502627211	0.0	0.9512663098347788	-0.5988097176780133	0.0	0.9756770464330016	-0.6212541670442248	0.0
64	2.1422222222222222	0.9032704460073357	-0.6828011452106817	0.0	0.9037191670798909	-0.6832593935832078	0.0	0.9637255018726949	-0.7767580948728872	0.0	0.9217335281442233	-0.8699356545680107	0.0	0.9567037816530469	-0.8860894947224487	0.0	0.9504915386059467	-0.8941655608139117	0.0	0.9090056769723528	-0.8775578861723383	0.0	0.9061560019131298	-0.6799782655015459	0.0	0.9609271525726193	-0.7715229236623199	0.0	0.922045316390216	-0.8667654362595031	0.0	0.9646739699688298	-0.8868979866525529	0.0	0.9530466634109249	-0.861119478045929	0.0	0.9063835851483809	-0.8704610742548008	0.0	0.9429209204343534	-0.5369430956353969	0.0	0.953780942981165	-0.46644411211990217	0.0	0.9741195751397997	-0.4962907381760201	0.0	0.9359266673022594	-0.5551549190643504	0.0	0.9563604767313337	-0.5966125699147354	0.0	0.9899178366786878	-0.6120187867413195	0.0	0.9407207883893319	-0.5507408448926507	0.0	0.9657202659640679	-0.5874174379848062	0.0	1.00252538985582	-0.5934601750867571	0.0
65	2.1756944444444444	0.9074010279582244	-0.678413009595257	0.0	0.9075689795858735	-0.6788697965031433	0.0	0.9572360335755842	-0.7781822100212439	0.0	0.9211001086132584	-0.8731064099683575	0.0	0.9545088527708571	-0.8903917178040306	0.0	0.9483940065779219	-0.8974747019180704	0.0	0.9088809562069406	-0.8815098801131713	0.0	0.9102918358664532	-0.6759215664306579	0.0	0.9559587022947985	-0.7739572703381227	0.0	0.9209633944328893	-0.8701293056172775	0.0	0.9633523698814068	-0.8902858121888456	0.0	0.9512277011160416	-0.8681669228325563	0.0	0.9058185288232323	-0.8743440289507562	0.0	0.933099258077603	-0.5311074834999281	0.0	0.9325644979519699	-0.45857900126908047	0.0	0.9579560734747254	-0.4878970642777846	0.0	0.9286496303720595	-0.5463237937588735	0.0	0.9629102224069703	-0.5679830145449485	0.0	0.9993548392476996	-0.5626444290981444	0.0	0.9335535175747964	-0.5426096980640343	0.0	0.9714907220824381	-0.5604477972647937	0.0	1.0086526151942867	-0.5473987455313811	0.0
66	2.2091666666666665	0.9124738063726567	-0.6646732563111548	0.0	0.91312702040029	-0.6650732815624761	0.0	0.9517153924844072	-0.7699850512629155	0.0	0.9209704844270062	-0.8678399813401282	0.0	0.9518016352241189	-0.8867628986129982	0.0	0.9454939939709606	-0.8920457986991479	0.0	0.9094199747801378	-0.8775119045288741	0.0	0.9144606484884454	-0.66259978791128	0.0	0.950756289648856	-0.7667186195752661	0.0	0.9205892951863441	-0.8652388691083724	0.0	0.9605388139265647	-0.8855916591069442	0.0	0.949091735375077	-0.8693289955991015	0.0	0.9062779443579857	-0.8708104044393772	0.0	0.9228024848400342	-0.5182390757364882	0.0	0.9103081241288797	-0.44519063547020865	0.0	0.9401338184655484	-0.4730121929444971	0.0	0.9209780565480937	-0.5290128148790323	0.0	0.9592551097260682	-0.5256010372030575	0.0	0.986725035323558	-0.5000549758531992	0.0	0.9245059076402262	-0.52640933380487	0.0	0.9657659757587428	-0.5214592797782073	0.0	0.9917208788370232	-0.491354729910364	0.0
